<svg width="31" height="32" viewBox="0 0 31 32" fill="none" xmlns="http://www.w3.org/2000/svg">
<rect y="0.666016" width="30.668" height="30.668" rx="15.334" fill="white"/>
<g clip-path="url(#clip0_44_2717)">
<path d="M17.5883 15.6167C17.5883 16.0844 17.2335 16.4677 16.784 16.4677C16.3423 16.4677 15.9796 16.0844 15.9796 15.6167C15.9796 15.149 16.3345 14.7656 16.784 14.7656C17.2335 14.7656 17.5883 15.149 17.5883 15.6167ZM13.9055 14.7656C13.456 14.7656 13.1012 15.149 13.1012 15.6167C13.1012 16.0844 13.4639 16.4677 13.9055 16.4677C14.3551 16.4677 14.7099 16.0844 14.7099 15.6167C14.7178 15.149 14.3551 14.7656 13.9055 14.7656ZM22.2332 9.91241V23.667C20.2465 21.9601 20.8819 22.5251 18.5741 20.4392L18.9921 21.8576H10.0493C9.15814 21.8576 8.43262 21.1522 8.43262 20.2782V9.91241C8.43262 9.03837 9.15814 8.33301 10.0493 8.33301H20.6166C21.5077 8.33301 22.2332 9.03837 22.2332 9.91241ZM19.9857 17.1807C19.9857 14.712 18.8501 12.7109 18.8501 12.7109C17.7145 11.8828 16.6341 11.9058 16.6341 11.9058L16.5237 12.0285C17.8643 12.4272 18.4873 13.0022 18.4873 13.0022C16.6141 12.004 14.4136 12.0039 12.5965 12.7799C12.3047 12.9102 12.1312 13.0022 12.1312 13.0022C12.1312 13.0022 12.7857 12.3965 14.2052 11.9978L14.1264 11.9058C14.1264 11.9058 13.046 11.8828 11.9104 12.7109C11.9104 12.7109 10.7748 14.712 10.7748 17.1807C10.7748 17.1807 11.4372 18.2924 13.18 18.3461C13.18 18.3461 13.4718 18.0011 13.7084 17.7098C12.7069 17.4184 12.3283 16.8051 12.3283 16.8051C12.4443 16.884 12.6356 16.9863 12.6517 16.9967C13.9827 17.7214 15.8735 17.9589 17.5726 17.2651C17.8486 17.1654 18.1561 17.0197 18.4795 16.8127C18.4795 16.8127 18.0852 17.4414 17.0521 17.7251C17.2887 18.0164 17.5726 18.3461 17.5726 18.3461C19.3154 18.2924 19.9857 17.1807 19.9857 17.1807Z" fill="black"/>
</g>
<defs>
<clipPath id="clip0_44_2717">
<rect width="13.8006" height="15.334" fill="white" transform="translate(8.43311 8.33301)"/>
</clipPath>
</defs>
</svg>
