<svg width="360" height="82" viewBox="0 0 360 82" fill="none" xmlns="http://www.w3.org/2000/svg">
<rect width="360" height="82" rx="13.7524" fill="#FEFEFE"/>
<path d="M44.8371 58.8763C61.441 58.8763 70.5226 45.1202 70.5226 33.1909C70.5226 32.8002 70.5226 32.4112 70.4962 32.024C72.2629 30.7461 73.788 29.1638 75 27.3512C73.3526 28.0816 71.6047 28.5604 69.815 28.7715C71.6997 27.6434 73.1101 25.8689 73.7838 23.7784C72.0118 24.83 70.0732 25.5711 68.0515 25.9696C66.6904 24.5223 64.8903 23.564 62.9297 23.2428C60.9691 22.9217 58.9573 23.2557 57.2056 24.1932C55.4539 25.1306 54.0601 26.6193 53.2397 28.4287C52.4193 30.2382 52.2182 32.2676 52.6674 34.2029C49.0783 34.0228 45.5672 33.0901 42.362 31.4652C39.1568 29.8403 36.3291 27.5596 34.0624 24.771C32.908 26.7584 32.5544 29.1109 33.0737 31.3498C33.5929 33.5887 34.946 35.5454 36.8573 36.8218C35.4206 36.7797 34.0152 36.3921 32.76 35.6918V35.8062C32.7606 37.8905 33.4821 39.9103 34.8021 41.5232C36.1221 43.1362 37.9594 44.2428 40.0024 44.6555C38.6734 45.018 37.2789 45.071 35.9262 44.8104C36.5033 46.604 37.6265 48.1724 39.1386 49.2964C40.6508 50.4205 42.4763 51.0439 44.3602 51.0795C42.4885 52.5507 40.3451 53.6385 38.0526 54.2805C35.7601 54.9226 33.3636 55.1063 31 54.8213C35.1284 57.4705 39.9319 58.8757 44.8371 58.8693" fill="#1DA1F2"/>
<path d="M103.986 31.008V51H109.194V42.768H115.41V38.68H109.194V35.264H115.83V31.008H103.986ZM122.694 43.44C122.694 42.488 122.712 41.704 122.75 41.088C122.787 40.472 122.862 39.9867 122.974 39.632C123.086 39.2773 123.226 39.0347 123.394 38.904C123.58 38.7733 123.814 38.708 124.094 38.708C124.374 38.708 124.607 38.7733 124.794 38.904C124.98 39.0347 125.12 39.2773 125.214 39.632C125.326 39.9867 125.4 40.472 125.438 41.088C125.475 41.704 125.494 42.488 125.494 43.44C125.494 44.392 125.475 45.176 125.438 45.792C125.4 46.3893 125.326 46.8653 125.214 47.22C125.12 47.5747 124.98 47.8173 124.794 47.948C124.607 48.0787 124.374 48.144 124.094 48.144C123.814 48.144 123.58 48.0787 123.394 47.948C123.226 47.8173 123.086 47.5747 122.974 47.22C122.862 46.8653 122.787 46.3893 122.75 45.792C122.712 45.176 122.694 44.392 122.694 43.44ZM130.534 43.44C130.534 42.3387 130.468 41.312 130.338 40.36C130.226 39.3893 129.955 38.54 129.526 37.812C129.096 37.084 128.452 36.5147 127.594 36.104C126.735 35.6747 125.568 35.46 124.094 35.46C122.675 35.46 121.536 35.6933 120.678 36.16C119.838 36.608 119.194 37.2053 118.746 37.952C118.298 38.6987 117.999 39.548 117.85 40.5C117.719 41.452 117.654 42.4227 117.654 43.412C117.654 44.5133 117.71 45.5493 117.822 46.52C117.952 47.472 118.232 48.312 118.662 49.04C119.091 49.7493 119.735 50.3093 120.594 50.72C121.452 51.112 122.619 51.308 124.094 51.308C125.512 51.308 126.642 51.0933 127.482 50.664C128.34 50.216 128.994 49.628 129.442 48.9C129.89 48.1533 130.179 47.304 130.31 46.352C130.459 45.4 130.534 44.4293 130.534 43.44ZM133.045 31.008V51H138.085V31.008H133.045ZM141.123 31.008V51H146.163V31.008H141.123ZM153.71 43.44C153.71 42.488 153.728 41.704 153.766 41.088C153.803 40.472 153.878 39.9867 153.99 39.632C154.102 39.2773 154.242 39.0347 154.41 38.904C154.596 38.7733 154.83 38.708 155.11 38.708C155.39 38.708 155.623 38.7733 155.81 38.904C155.996 39.0347 156.136 39.2773 156.23 39.632C156.342 39.9867 156.416 40.472 156.454 41.088C156.491 41.704 156.51 42.488 156.51 43.44C156.51 44.392 156.491 45.176 156.454 45.792C156.416 46.3893 156.342 46.8653 156.23 47.22C156.136 47.5747 155.996 47.8173 155.81 47.948C155.623 48.0787 155.39 48.144 155.11 48.144C154.83 48.144 154.596 48.0787 154.41 47.948C154.242 47.8173 154.102 47.5747 153.99 47.22C153.878 46.8653 153.803 46.3893 153.766 45.792C153.728 45.176 153.71 44.392 153.71 43.44ZM161.55 43.44C161.55 42.3387 161.484 41.312 161.354 40.36C161.242 39.3893 160.971 38.54 160.542 37.812C160.112 37.084 159.468 36.5147 158.61 36.104C157.751 35.6747 156.584 35.46 155.11 35.46C153.691 35.46 152.552 35.6933 151.694 36.16C150.854 36.608 150.21 37.2053 149.762 37.952C149.314 38.6987 149.015 39.548 148.866 40.5C148.735 41.452 148.67 42.4227 148.67 43.412C148.67 44.5133 148.726 45.5493 148.838 46.52C148.968 47.472 149.248 48.312 149.678 49.04C150.107 49.7493 150.751 50.3093 151.61 50.72C152.468 51.112 153.635 51.308 155.11 51.308C156.528 51.308 157.658 51.0933 158.498 50.664C159.356 50.216 160.01 49.628 160.458 48.9C160.906 48.1533 161.195 47.304 161.326 46.352C161.475 45.4 161.55 44.4293 161.55 43.44ZM162.969 35.852L166.049 51H171.761L173.301 40.276H173.357L174.897 51H180.609L183.689 35.852H178.817L177.557 46.744H177.501L176.017 35.852H170.641L169.157 46.744H169.101L167.841 35.852H162.969ZM198.708 41.004C198.708 39.66 198.727 38.5493 198.764 37.672C198.802 36.776 198.876 36.0667 198.988 35.544C199.119 35.0213 199.296 34.6573 199.52 34.452C199.763 34.2467 200.08 34.144 200.472 34.144C200.864 34.144 201.172 34.2467 201.396 34.452C201.639 34.6573 201.816 35.0213 201.928 35.544C202.059 36.0667 202.143 36.776 202.18 37.672C202.218 38.5493 202.236 39.66 202.236 41.004C202.236 42.348 202.218 43.468 202.18 44.364C202.143 45.2413 202.059 45.9413 201.928 46.464C201.816 46.9867 201.639 47.3507 201.396 47.556C201.172 47.7613 200.864 47.864 200.472 47.864C200.08 47.864 199.763 47.7613 199.52 47.556C199.296 47.3507 199.119 46.9867 198.988 46.464C198.876 45.9413 198.802 45.2413 198.764 44.364C198.727 43.468 198.708 42.348 198.708 41.004ZM193.332 41.004C193.332 42.8707 193.454 44.4667 193.696 45.792C193.939 47.0987 194.34 48.172 194.9 49.012C195.46 49.8333 196.198 50.4213 197.112 50.776C198.027 51.1307 199.147 51.308 200.472 51.308C201.798 51.308 202.918 51.1307 203.832 50.776C204.747 50.4213 205.484 49.8333 206.044 49.012C206.604 48.172 207.006 47.0987 207.248 45.792C207.491 44.4667 207.612 42.8707 207.612 41.004C207.612 39.1373 207.491 37.5507 207.248 36.244C207.006 34.9187 206.604 33.8453 206.044 33.024C205.484 32.184 204.747 31.5773 203.832 31.204C202.918 30.812 201.798 30.616 200.472 30.616C199.147 30.616 198.027 30.812 197.112 31.204C196.198 31.5773 195.46 32.184 194.9 33.024C194.34 33.8453 193.939 34.9187 193.696 36.244C193.454 37.5507 193.332 39.1373 193.332 41.004ZM210.114 35.852V47.276C210.114 48.0787 210.217 48.7507 210.422 49.292C210.628 49.8147 210.908 50.2347 211.262 50.552C211.617 50.8507 212.028 51.0467 212.494 51.14C212.98 51.252 213.502 51.308 214.062 51.308C215.873 51.308 217.096 50.5893 217.73 49.152H217.786V51H222.658V35.852H217.618V45.848C217.618 46.4827 217.525 46.94 217.338 47.22C217.152 47.5 216.834 47.64 216.386 47.64C215.938 47.64 215.621 47.5 215.434 47.22C215.248 46.94 215.154 46.4827 215.154 45.848V35.852H210.114ZM225.381 35.852V51H230.421V42.74C230.421 41.732 230.663 41.032 231.149 40.64C231.653 40.248 232.353 40.052 233.249 40.052C233.454 40.052 233.659 40.0613 233.865 40.08C234.07 40.0987 234.285 40.1267 234.509 40.164V35.46H233.697C232.95 35.46 232.269 35.7027 231.653 36.188C231.037 36.6547 230.589 37.3453 230.309 38.26H230.253V35.852H225.381ZM246.174 35.432V51H251.382V35.432H255.302V31.008H242.31V35.432H246.174ZM254.025 35.852L257.105 51H262.817L264.357 40.276H264.413L265.953 51H271.665L274.745 35.852H269.873L268.613 46.744H268.557L267.073 35.852H261.697L260.213 46.744H260.157L258.897 35.852H254.025ZM276.703 31.008V34.76H281.743V31.008H276.703ZM276.703 35.852V51H281.743V35.852H276.703ZM283.745 35.852V39.24H285.425V47.304C285.425 48.144 285.5 48.8253 285.649 49.348C285.817 49.852 286.069 50.2347 286.405 50.496C286.76 50.7573 287.208 50.9253 287.749 51C288.291 51.056 288.944 51.084 289.709 51.084C290.139 51.084 290.587 51.0653 291.053 51.028C291.52 51.0093 291.987 51 292.453 51V47.64H291.669C291.259 47.64 290.951 47.556 290.745 47.388C290.559 47.2013 290.465 46.8933 290.465 46.464V39.24H292.453V35.852H290.465V31.4H285.425V35.852H283.745ZM293.437 35.852V39.24H295.117V47.304C295.117 48.144 295.192 48.8253 295.341 49.348C295.509 49.852 295.761 50.2347 296.097 50.496C296.452 50.7573 296.9 50.9253 297.441 51C297.982 51.056 298.636 51.084 299.401 51.084C299.83 51.084 300.278 51.0653 300.745 51.028C301.212 51.0093 301.678 51 302.145 51V47.64H301.361C300.95 47.64 300.642 47.556 300.437 47.388C300.25 47.2013 300.157 46.8933 300.157 46.464V39.24H302.145V35.852H300.157V31.4H295.117V35.852H293.437ZM311.444 40.864V41.536H308.672V40.864C308.672 40.0613 308.766 39.4733 308.952 39.1C309.158 38.7267 309.522 38.54 310.044 38.54C310.586 38.54 310.95 38.7267 311.136 39.1C311.342 39.4733 311.444 40.0613 311.444 40.864ZM308.672 44.28H316.148V42.74C316.148 41.3587 316.018 40.2107 315.756 39.296C315.514 38.3627 315.131 37.616 314.608 37.056C314.104 36.4773 313.47 36.0667 312.704 35.824C311.958 35.5813 311.08 35.46 310.072 35.46C308.934 35.46 307.954 35.6093 307.132 35.908C306.33 36.188 305.667 36.6453 305.144 37.28C304.622 37.9147 304.239 38.736 303.996 39.744C303.754 40.752 303.632 41.984 303.632 43.44C303.632 44.8773 303.735 46.1 303.94 47.108C304.164 48.116 304.528 48.9373 305.032 49.572C305.536 50.188 306.199 50.636 307.02 50.916C307.842 51.1773 308.859 51.308 310.072 51.308C312.163 51.308 313.666 50.8413 314.58 49.908C315.495 48.956 315.971 47.5467 316.008 45.68H311.472C311.472 46.7067 311.342 47.4067 311.08 47.78C310.838 48.1347 310.492 48.312 310.044 48.312C309.69 48.312 309.372 48.1813 309.092 47.92C308.812 47.64 308.672 47.0893 308.672 46.268V44.28ZM318.28 35.852V51H323.32V42.74C323.32 41.732 323.563 41.032 324.048 40.64C324.552 40.248 325.252 40.052 326.148 40.052C326.354 40.052 326.559 40.0613 326.764 40.08C326.97 40.0987 327.184 40.1267 327.408 40.164V35.46H326.596C325.85 35.46 325.168 35.7027 324.552 36.188C323.936 36.6547 323.488 37.3453 323.208 38.26H323.152V35.852H318.28Z" fill="#1DA1F2"/>
</svg>
