<svg width="360" height="82" viewBox="0 0 360 82" fill="none" xmlns="http://www.w3.org/2000/svg">
<rect width="360" height="82" rx="13.7524" fill="#FEFEFE"/>
<path d="M79.2479 26.618C76.4434 25.3312 73.4361 24.3832 70.2918 23.8402C70.2346 23.8297 70.1774 23.8559 70.1479 23.9083C69.7611 24.5962 69.3327 25.4936 69.0327 26.1989C65.6507 25.6926 62.2862 25.6926 58.9736 26.1989C58.6735 25.4779 58.2296 24.5962 57.8411 23.9083C57.8116 23.8576 57.7544 23.8314 57.6971 23.8402C54.5545 24.3814 51.5472 25.3295 48.741 26.618C48.7168 26.6285 48.6959 26.6459 48.6821 26.6686C42.9779 35.1906 41.4153 43.5031 42.1818 51.7126C42.1853 51.7528 42.2078 51.7912 42.2391 51.8156C46.0025 54.5794 49.6481 56.2573 53.226 57.3695C53.2833 57.3869 53.3439 57.366 53.3804 57.3188C54.2267 56.1631 54.9812 54.9444 55.628 53.6628C55.6662 53.5878 55.6298 53.4987 55.5518 53.469C54.3551 53.0151 53.2156 52.4616 52.1195 51.8331C52.0328 51.7825 52.0259 51.6584 52.1056 51.5991C52.3363 51.4262 52.567 51.2464 52.7873 51.0648C52.8271 51.0317 52.8826 51.0247 52.9295 51.0456C60.1304 54.3333 67.9262 54.3333 75.0421 51.0456C75.0889 51.0229 75.1445 51.0299 75.186 51.0631C75.4064 51.2447 75.637 51.4262 75.8694 51.5991C75.9492 51.6584 75.944 51.7825 75.8573 51.8331C74.7612 52.4738 73.6217 53.0151 72.4233 53.4673C72.3452 53.497 72.3105 53.5878 72.3487 53.6628C73.0095 54.9426 73.7639 56.1613 74.5946 57.3171C74.6293 57.366 74.6918 57.3869 74.749 57.3695C78.3442 56.2573 81.9898 54.5794 85.7533 51.8156C85.7863 51.7912 85.8071 51.7545 85.8106 51.7143C86.728 42.2233 84.2739 33.9789 79.3051 26.6703C79.2929 26.6459 79.2722 26.6285 79.2479 26.618ZM56.7034 46.7139C54.5354 46.7139 52.7491 44.7236 52.7491 42.2792C52.7491 39.8348 54.5008 37.8445 56.7034 37.8445C58.9233 37.8445 60.6923 39.8523 60.6576 42.2792C60.6576 44.7236 58.9059 46.7139 56.7034 46.7139ZM71.3237 46.7139C69.1558 46.7139 67.3695 44.7236 67.3695 42.2792C67.3695 39.8348 69.1211 37.8445 71.3237 37.8445C73.5437 37.8445 75.3126 39.8523 75.278 42.2792C75.278 44.7236 73.5437 46.7139 71.3237 46.7139Z" fill="#5865F2"/>
<path d="M126.251 31.008H121.043V45.484C121.043 46.436 120.912 47.0707 120.651 47.388C120.408 47.7053 120.091 47.864 119.699 47.864C119.307 47.864 118.98 47.7053 118.719 47.388C118.476 47.0707 118.355 46.436 118.355 45.484V44.504H113.651V44.924C113.651 47.0147 114.118 48.6013 115.051 49.684C115.984 50.7667 117.543 51.308 119.727 51.308C121.874 51.308 123.498 50.8227 124.599 49.852C125.7 48.8627 126.251 47.164 126.251 44.756V31.008ZM133.563 43.44C133.563 42.488 133.582 41.704 133.619 41.088C133.656 40.472 133.731 39.9867 133.843 39.632C133.955 39.2773 134.095 39.0347 134.263 38.904C134.45 38.7733 134.683 38.708 134.963 38.708C135.243 38.708 135.476 38.7733 135.663 38.904C135.85 39.0347 135.99 39.2773 136.083 39.632C136.195 39.9867 136.27 40.472 136.307 41.088C136.344 41.704 136.363 42.488 136.363 43.44C136.363 44.392 136.344 45.176 136.307 45.792C136.27 46.3893 136.195 46.8653 136.083 47.22C135.99 47.5747 135.85 47.8173 135.663 47.948C135.476 48.0787 135.243 48.144 134.963 48.144C134.683 48.144 134.45 48.0787 134.263 47.948C134.095 47.8173 133.955 47.5747 133.843 47.22C133.731 46.8653 133.656 46.3893 133.619 45.792C133.582 45.176 133.563 44.392 133.563 43.44ZM141.403 43.44C141.403 42.3387 141.338 41.312 141.207 40.36C141.095 39.3893 140.824 38.54 140.395 37.812C139.966 37.084 139.322 36.5147 138.463 36.104C137.604 35.6747 136.438 35.46 134.963 35.46C133.544 35.46 132.406 35.6933 131.547 36.16C130.707 36.608 130.063 37.2053 129.615 37.952C129.167 38.6987 128.868 39.548 128.719 40.5C128.588 41.452 128.523 42.4227 128.523 43.412C128.523 44.5133 128.579 45.5493 128.691 46.52C128.822 47.472 129.102 48.312 129.531 49.04C129.96 49.7493 130.604 50.3093 131.463 50.72C132.322 51.112 133.488 51.308 134.963 51.308C136.382 51.308 137.511 51.0933 138.351 50.664C139.21 50.216 139.863 49.628 140.311 48.9C140.759 48.1533 141.048 47.304 141.179 46.352C141.328 45.4 141.403 44.4293 141.403 43.44ZM143.914 31.008V34.76H148.954V31.008H143.914ZM143.914 35.852V51H148.954V35.852H143.914ZM151.909 35.852V51H156.949V41.004C156.949 40.3693 157.042 39.912 157.229 39.632C157.415 39.352 157.733 39.212 158.181 39.212C158.629 39.212 158.946 39.352 159.133 39.632C159.319 39.912 159.413 40.3693 159.413 41.004V51H164.453V39.576C164.453 38.7547 164.35 38.0827 164.145 37.56C163.939 37.0373 163.659 36.6173 163.305 36.3C162.95 35.9827 162.53 35.768 162.045 35.656C161.578 35.5253 161.065 35.46 160.505 35.46C158.713 35.46 157.49 36.2067 156.837 37.7H156.781V35.852H151.909ZM180.46 41.004C180.46 39.66 180.479 38.5493 180.516 37.672C180.553 36.776 180.628 36.0667 180.74 35.544C180.871 35.0213 181.048 34.6573 181.272 34.452C181.515 34.2467 181.832 34.144 182.224 34.144C182.616 34.144 182.924 34.2467 183.148 34.452C183.391 34.6573 183.568 35.0213 183.68 35.544C183.811 36.0667 183.895 36.776 183.932 37.672C183.969 38.5493 183.988 39.66 183.988 41.004C183.988 42.348 183.969 43.468 183.932 44.364C183.895 45.2413 183.811 45.9413 183.68 46.464C183.568 46.9867 183.391 47.3507 183.148 47.556C182.924 47.7613 182.616 47.864 182.224 47.864C181.832 47.864 181.515 47.7613 181.272 47.556C181.048 47.3507 180.871 46.9867 180.74 46.464C180.628 45.9413 180.553 45.2413 180.516 44.364C180.479 43.468 180.46 42.348 180.46 41.004ZM175.084 41.004C175.084 42.8707 175.205 44.4667 175.448 45.792C175.691 47.0987 176.092 48.172 176.652 49.012C177.212 49.8333 177.949 50.4213 178.864 50.776C179.779 51.1307 180.899 51.308 182.224 51.308C183.549 51.308 184.669 51.1307 185.584 50.776C186.499 50.4213 187.236 49.8333 187.796 49.012C188.356 48.172 188.757 47.0987 189 45.792C189.243 44.4667 189.364 42.8707 189.364 41.004C189.364 39.1373 189.243 37.5507 189 36.244C188.757 34.9187 188.356 33.8453 187.796 33.024C187.236 32.184 186.499 31.5773 185.584 31.204C184.669 30.812 183.549 30.616 182.224 30.616C180.899 30.616 179.779 30.812 178.864 31.204C177.949 31.5773 177.212 32.184 176.652 33.024C176.092 33.8453 175.691 34.9187 175.448 36.244C175.205 37.5507 175.084 39.1373 175.084 41.004ZM191.866 35.852V47.276C191.866 48.0787 191.969 48.7507 192.174 49.292C192.38 49.8147 192.66 50.2347 193.014 50.552C193.369 50.8507 193.78 51.0467 194.246 51.14C194.732 51.252 195.254 51.308 195.814 51.308C197.625 51.308 198.848 50.5893 199.482 49.152H199.538V51H204.41V35.852H199.37V45.848C199.37 46.4827 199.277 46.94 199.09 47.22C198.904 47.5 198.586 47.64 198.138 47.64C197.69 47.64 197.373 47.5 197.186 47.22C197 46.94 196.906 46.4827 196.906 45.848V35.852H191.866ZM207.133 35.852V51H212.173V42.74C212.173 41.732 212.415 41.032 212.901 40.64C213.405 40.248 214.105 40.052 215.001 40.052C215.206 40.052 215.411 40.0613 215.617 40.08C215.822 40.0987 216.037 40.1267 216.261 40.164V35.46H215.449C214.702 35.46 214.021 35.7027 213.405 36.188C212.789 36.6547 212.341 37.3453 212.061 38.26H212.005V35.852H207.133ZM226.333 31.008V51H233.893C235.405 51 236.581 50.7293 237.421 50.188C238.261 49.628 238.886 48.8907 239.297 47.976C239.726 47.0427 239.987 45.9787 240.081 44.784C240.174 43.5707 240.221 42.3107 240.221 41.004C240.221 39.6973 240.174 38.4467 240.081 37.252C239.987 36.0387 239.726 34.9747 239.297 34.06C238.886 33.1267 238.261 32.3893 237.421 31.848C236.581 31.288 235.405 31.008 233.893 31.008H226.333ZM231.541 47.248V34.76H232.577C233.081 34.76 233.482 34.8347 233.781 34.984C234.079 35.1147 234.303 35.404 234.453 35.852C234.621 36.3 234.723 36.9347 234.761 37.756C234.817 38.5773 234.845 39.66 234.845 41.004C234.845 42.348 234.817 43.4307 234.761 44.252C234.723 45.0733 234.621 45.708 234.453 46.156C234.303 46.604 234.079 46.9027 233.781 47.052C233.482 47.1827 233.081 47.248 232.577 47.248H231.541ZM243.13 31.008V34.76H248.17V31.008H243.13ZM243.13 35.852V51H248.17V35.852H243.13ZM255.017 46.296H250.593C250.593 47.9573 251.05 49.208 251.965 50.048C252.898 50.888 254.419 51.308 256.529 51.308C257.481 51.308 258.33 51.196 259.077 50.972C259.842 50.748 260.477 50.412 260.981 49.964C261.503 49.516 261.905 48.984 262.185 48.368C262.465 47.752 262.605 47.0707 262.605 46.324C262.605 45.3533 262.418 44.5787 262.045 44C261.69 43.4027 261.242 42.936 260.701 42.6C260.159 42.2453 259.571 41.9747 258.937 41.788C258.321 41.6013 257.742 41.424 257.201 41.256C256.659 41.088 256.202 40.9013 255.829 40.696C255.474 40.472 255.297 40.1453 255.297 39.716C255.297 39.3427 255.418 39.0533 255.661 38.848C255.903 38.6427 256.211 38.54 256.585 38.54C257.014 38.54 257.341 38.6613 257.565 38.904C257.807 39.128 257.929 39.5667 257.929 40.22H262.297C262.297 37.0467 260.402 35.46 256.613 35.46C255.586 35.46 254.69 35.5813 253.925 35.824C253.178 36.0667 252.553 36.4027 252.049 36.832C251.563 37.2613 251.199 37.7653 250.957 38.344C250.714 38.904 250.593 39.52 250.593 40.192C250.593 41.144 250.77 41.9187 251.125 42.516C251.498 43.0947 251.955 43.5613 252.497 43.916C253.038 44.2707 253.617 44.5507 254.233 44.756C254.867 44.9613 255.455 45.1573 255.997 45.344C256.538 45.5307 256.986 45.7453 257.341 45.988C257.714 46.2307 257.901 46.576 257.901 47.024C257.901 47.4347 257.751 47.752 257.453 47.976C257.173 48.2 256.837 48.312 256.445 48.312C255.978 48.312 255.623 48.1347 255.381 47.78C255.25 47.612 255.157 47.3973 255.101 47.136C255.045 46.8747 255.017 46.5947 255.017 46.296ZM272.477 41.788H277.013C277.013 40.836 276.92 39.9773 276.733 39.212C276.565 38.428 276.257 37.7653 275.809 37.224C275.38 36.664 274.792 36.2347 274.045 35.936C273.317 35.6187 272.393 35.46 271.273 35.46C270.321 35.46 269.435 35.5533 268.613 35.74C267.792 35.9267 267.073 36.3093 266.457 36.888C265.86 37.4667 265.384 38.2973 265.029 39.38C264.675 40.4627 264.497 41.9 264.497 43.692C264.497 45.3347 264.656 46.66 264.973 47.668C265.291 48.6573 265.729 49.432 266.289 49.992C266.868 50.5333 267.559 50.888 268.361 51.056C269.164 51.224 270.051 51.308 271.021 51.308C273.168 51.308 274.717 50.804 275.669 49.796C276.155 49.2547 276.5 48.564 276.705 47.724C276.911 46.884 277.013 45.8667 277.013 44.672H272.477V45.652C272.477 46.604 272.347 47.2573 272.085 47.612C271.843 47.9667 271.488 48.144 271.021 48.144C270.741 48.144 270.499 48.0787 270.293 47.948C270.107 47.7987 269.957 47.5467 269.845 47.192C269.733 46.8373 269.649 46.3613 269.593 45.764C269.556 45.148 269.537 44.3733 269.537 43.44C269.537 42.5067 269.556 41.7413 269.593 41.144C269.649 40.528 269.733 40.0427 269.845 39.688C269.957 39.3147 270.107 39.0627 270.293 38.932C270.499 38.7827 270.741 38.708 271.021 38.708C271.563 38.708 271.936 38.9227 272.141 39.352C272.253 39.5947 272.337 39.912 272.393 40.304C272.449 40.6773 272.477 41.172 272.477 41.788ZM283.877 43.44C283.877 42.488 283.896 41.704 283.933 41.088C283.971 40.472 284.045 39.9867 284.157 39.632C284.269 39.2773 284.409 39.0347 284.577 38.904C284.764 38.7733 284.997 38.708 285.277 38.708C285.557 38.708 285.791 38.7733 285.977 38.904C286.164 39.0347 286.304 39.2773 286.397 39.632C286.509 39.9867 286.584 40.472 286.621 41.088C286.659 41.704 286.677 42.488 286.677 43.44C286.677 44.392 286.659 45.176 286.621 45.792C286.584 46.3893 286.509 46.8653 286.397 47.22C286.304 47.5747 286.164 47.8173 285.977 47.948C285.791 48.0787 285.557 48.144 285.277 48.144C284.997 48.144 284.764 48.0787 284.577 47.948C284.409 47.8173 284.269 47.5747 284.157 47.22C284.045 46.8653 283.971 46.3893 283.933 45.792C283.896 45.176 283.877 44.392 283.877 43.44ZM291.717 43.44C291.717 42.3387 291.652 41.312 291.521 40.36C291.409 39.3893 291.139 38.54 290.709 37.812C290.28 37.084 289.636 36.5147 288.777 36.104C287.919 35.6747 286.752 35.46 285.277 35.46C283.859 35.46 282.72 35.6933 281.861 36.16C281.021 36.608 280.377 37.2053 279.929 37.952C279.481 38.6987 279.183 39.548 279.033 40.5C278.903 41.452 278.837 42.4227 278.837 43.412C278.837 44.5133 278.893 45.5493 279.005 46.52C279.136 47.472 279.416 48.312 279.845 49.04C280.275 49.7493 280.919 50.3093 281.777 50.72C282.636 51.112 283.803 51.308 285.277 51.308C286.696 51.308 287.825 51.0933 288.665 50.664C289.524 50.216 290.177 49.628 290.625 48.9C291.073 48.1533 291.363 47.304 291.493 46.352C291.643 45.4 291.717 44.4293 291.717 43.44ZM294.005 35.852V51H299.045V42.74C299.045 41.732 299.287 41.032 299.773 40.64C300.277 40.248 300.977 40.052 301.873 40.052C302.078 40.052 302.283 40.0613 302.489 40.08C302.694 40.0987 302.909 40.1267 303.133 40.164V35.46H302.321C301.574 35.46 300.893 35.7027 300.277 36.188C299.661 36.6547 299.213 37.3453 298.933 38.26H298.877V35.852H294.005ZM309.44 43.44C309.44 42.6187 309.459 41.9373 309.496 41.396C309.533 40.8547 309.599 40.4253 309.692 40.108C309.804 39.772 309.953 39.5387 310.14 39.408C310.327 39.2773 310.569 39.212 310.868 39.212C311.148 39.212 311.381 39.2773 311.568 39.408C311.755 39.5387 311.895 39.772 311.988 40.108C312.1 40.4253 312.175 40.8547 312.212 41.396C312.249 41.9373 312.268 42.6187 312.268 43.44C312.268 44.2427 312.249 44.9147 312.212 45.456C312.175 45.9973 312.1 46.436 311.988 46.772C311.895 47.0893 311.755 47.3133 311.568 47.444C311.381 47.5747 311.148 47.64 310.868 47.64C310.569 47.64 310.327 47.5747 310.14 47.444C309.953 47.3133 309.804 47.0893 309.692 46.772C309.599 46.436 309.533 45.9973 309.496 45.456C309.459 44.9147 309.44 44.2427 309.44 43.44ZM312.268 31.008V37.56H312.212C311.951 36.776 311.531 36.2347 310.952 35.936C310.392 35.6187 309.757 35.46 309.048 35.46C308.357 35.46 307.723 35.5907 307.144 35.852C306.565 36.1133 306.071 36.5427 305.66 37.14C305.268 37.7373 304.96 38.5213 304.736 39.492C304.512 40.4627 304.4 41.6667 304.4 43.104C304.4 45.9227 304.736 47.9947 305.408 49.32C306.08 50.6453 307.256 51.308 308.936 51.308C309.832 51.308 310.551 51.1213 311.092 50.748C311.633 50.3747 312.063 49.768 312.38 48.928H312.436V51H317.308V31.008H312.268Z" fill="#5865F2"/>
</svg>
