<svg width="32" height="32" viewBox="0 0 32 32" fill="none" xmlns="http://www.w3.org/2000/svg">
<rect x="0.891602" y="0.666016" width="30.668" height="30.668" rx="15.334" fill="white"/>
<g clip-path="url(#clip0_44_2720)">
<path d="M21.7063 13.3303C21.715 13.4487 21.715 13.5671 21.715 13.6855C21.715 17.2963 18.8691 21.4568 13.6676 21.4568C12.0651 21.4568 10.5764 21.0086 9.32422 20.2307C9.5519 20.256 9.7708 20.2645 10.0072 20.2645C11.3295 20.2645 12.5467 19.8332 13.5187 19.0975C12.2752 19.0722 11.2332 18.2857 10.8742 17.2033C11.0493 17.2287 11.2244 17.2456 11.4083 17.2456C11.6623 17.2456 11.9162 17.2118 12.1527 17.1526C10.8567 16.8989 9.88463 15.7996 9.88463 14.4719V14.4381C10.2612 14.6411 10.699 14.7679 11.1631 14.7848C10.4013 14.2944 9.90215 13.4572 9.90215 12.5101C9.90215 12.0027 10.0422 11.5376 10.2874 11.1317C11.6798 12.7891 13.7726 13.8715 16.1194 13.9899C16.0757 13.787 16.0494 13.5756 16.0494 13.3642C16.0494 11.859 17.3104 10.6328 18.8778 10.6328C19.6922 10.6328 20.4277 10.9626 20.9444 11.4954C21.5836 11.377 22.1966 11.1486 22.7395 10.8358C22.5294 11.47 22.0828 12.0027 21.4961 12.341C22.0653 12.2818 22.617 12.1296 23.1248 11.9182C22.7396 12.4594 22.2579 12.9413 21.7063 13.3303Z" fill="black"/>
</g>
<defs>
<clipPath id="clip0_44_2720">
<rect width="13.8006" height="11.5005" fill="white" transform="translate(9.32422 10.6328)"/>
</clipPath>
</defs>
</svg>
